<svg width="27" height="27" viewBox="0 0 27 27" fill="none" xmlns="http://www.w3.org/2000/svg">
<path d="M13.4289 22.1038C8.54087 22.1038 4.58887 18.1518 4.58887 13.2638C4.58887 8.37583 8.54087 4.42383 13.4289 4.42383C18.3169 4.42383 22.2689 8.37583 22.2689 13.2638C22.2689 18.1518 18.3169 22.1038 13.4289 22.1038ZM13.4289 5.46383C9.11287 5.46383 5.62887 8.94783 5.62887 13.2638C5.62887 17.5798 9.11287 21.0638 13.4289 21.0638C17.7449 21.0638 21.2289 17.5798 21.2289 13.2638C21.2289 8.94783 17.7449 5.46383 13.4289 5.46383Z" fill="#585858"/>
<path d="M12.3887 17.1113L7.86475 12.5873L8.59275 11.8593L12.3887 15.6553L18.2647 9.7793L18.9927 10.5073L12.3887 17.1113Z" fill="#585858"/>
</svg>
