<svg width="46" height="45" viewBox="0 0 46 45" fill="none" xmlns="http://www.w3.org/2000/svg">
<g clip-path="url(#clip0_1_535)">
<path d="M20.0567 5.6249C17.9107 5.6249 15.9082 6.22397 14.2011 7.26741C14.0246 6.32356 13.703 5.41276 13.2476 4.5674C15.3888 3.38249 17.802 2.77684 20.249 2.8103C22.6959 2.84376 25.0917 3.51517 27.1997 4.75818C29.3076 6.00119 31.0547 7.77276 32.2683 9.8978C33.4818 12.0228 34.1198 14.4278 34.1192 16.8749H41.1533C42.2717 16.8757 43.344 17.3205 44.1346 18.1116C44.9252 18.9027 45.3693 19.9753 45.3693 21.0937V37.9687C45.3693 39.0876 44.9248 40.1607 44.1336 40.9518C43.3424 41.743 42.2694 42.1875 41.1505 42.1875H24.2755C23.1566 42.1875 22.0835 41.743 21.2923 40.9518C20.5012 40.1607 20.0567 39.0876 20.0567 37.9687V30.9375C18.1003 30.9399 16.165 30.5328 14.3754 29.7421C14.412 28.7859 14.4317 27.7818 14.4317 26.7187V26.6203C16.0854 27.5765 18.0064 28.125 20.0567 28.125V21.0937C20.0567 19.9748 20.5012 18.9017 21.2923 18.1106C22.0835 17.3194 23.1566 16.8749 24.2755 16.8749H31.3067C31.3067 13.8912 30.1215 11.0297 28.0117 8.91996C25.9019 6.81017 23.0404 5.6249 20.0567 5.6249ZM33.838 19.6874C33.2848 22.389 31.9504 24.8687 30.0004 26.8187C28.0505 28.7686 25.5708 30.103 22.8692 30.6562V37.9687C22.8692 38.3417 23.0174 38.6994 23.2811 38.9631C23.5448 39.2268 23.9025 39.375 24.2755 39.375H41.1505C41.5235 39.375 41.8811 39.2268 42.1449 38.9631C42.4086 38.6994 42.5567 38.3417 42.5567 37.9687V21.0937C42.5567 20.7207 42.4086 20.363 42.1449 20.0993C41.8811 19.8356 41.5235 19.6874 41.1505 19.6874H33.838ZM30.9523 19.6874H24.2755C23.9025 19.6874 23.5448 19.8356 23.2811 20.0993C23.0174 20.363 22.8692 20.7207 22.8692 21.0937V27.7706C24.8149 27.2665 26.5904 26.2512 28.0117 24.8299C29.433 23.4087 30.4483 21.6332 30.9523 19.6874ZM7.62822 0.351451C7.86167 0.555644 8.02106 0.831285 8.0816 1.13547C8.14213 1.43966 8.1004 1.75532 7.96291 2.03333C7.9391 2.11561 7.9268 2.2008 7.92635 2.28646C7.92635 2.46364 7.97135 2.80114 8.39604 3.22302C8.60135 3.42833 8.75885 3.57458 8.93041 3.7349C9.07104 3.86427 9.2201 3.99927 9.40854 4.1849C9.77417 4.53365 10.1595 4.94427 10.5054 5.45896C11.2226 6.53615 11.6192 7.88334 11.6192 9.84366C11.6192 12.2427 10.7304 14.2874 9.34385 15.5418L9.52385 15.7499C10.3114 16.7174 10.7698 17.9718 11.0567 19.2093C11.6192 21.6562 11.6192 24.5981 11.6192 26.6484V26.7187C11.6192 34.5572 10.5532 39.0037 9.38041 41.5462C8.78979 42.8259 8.1626 43.6416 7.61978 44.1534C7.3991 44.3652 7.15576 44.5519 6.89416 44.7103C6.77438 44.7824 6.64934 44.8454 6.52009 44.8988C6.52009 44.8988 6.20228 45 5.99415 45C5.78603 45 5.46822 44.8988 5.46822 44.8988C5.33757 44.8485 5.21226 44.7854 5.09415 44.7103C4.83255 44.5519 4.58921 44.3652 4.36853 44.1534C3.82571 43.6387 3.19852 42.8259 2.6079 41.5462C1.43508 39.0037 0.369141 34.5572 0.369141 26.7187V26.6484C0.369141 24.5953 0.369141 21.6562 0.931642 19.2093C1.21852 17.9718 1.67696 16.7174 2.46446 15.7499C2.52071 15.6796 2.58258 15.6093 2.64446 15.5418C1.25789 14.2874 0.369141 12.2427 0.369141 9.84366C0.369141 8.92679 0.613829 7.83272 0.95133 6.82303C1.28883 5.81053 1.76133 4.76427 2.30696 3.92052C2.95665 2.82364 3.87071 1.90395 4.57946 1.2852C4.96804 0.943473 5.37355 0.621503 5.79447 0.320513L5.87884 0.264263L5.90415 0.244575L5.91259 0.23895L5.91822 0.236138C6.17611 0.0642283 6.48358 -0.0176656 6.79282 0.00318766C7.10206 0.0240409 7.39574 0.146473 7.62822 0.351451ZM5.99415 14.0624C7.0826 14.0596 8.80666 12.853 8.80666 9.84366C8.80666 8.28835 8.5001 7.52616 8.1626 7.0199C7.95739 6.72422 7.72069 6.45168 7.45666 6.20709L7.10791 5.88084C6.88009 5.66709 6.61291 5.41959 6.40478 5.21428C6.09717 4.90987 5.83311 4.56441 5.62009 4.18771C5.26209 4.56414 4.94703 4.97919 4.68071 5.42521C4.28696 6.0299 3.90446 6.85959 3.6204 7.71459C3.3279 8.58647 3.18165 9.3571 3.18165 9.84366C3.18165 12.8587 4.91134 14.0624 5.99415 14.0624ZM4.64415 17.5274C4.24478 18.014 3.9129 18.7902 3.67102 19.8421C3.18727 21.9459 3.18165 24.5896 3.18165 26.7187C3.18165 34.349 4.22509 38.34 5.16165 40.3678C5.47103 41.0344 5.76072 41.4787 5.99415 41.7741C6.32646 41.34 6.60592 40.8679 6.82666 40.3678C7.76322 38.34 8.80666 34.349 8.80666 26.7187C8.80666 24.5896 8.80104 21.9459 8.31447 19.8421C8.0726 18.7902 7.74072 18.014 7.34416 17.5274C7.18903 17.3172 6.98504 17.148 6.74982 17.0343C6.51461 16.9206 6.25525 16.8659 5.99415 16.8749H5.98853C5.72834 16.8666 5.47002 16.9216 5.23582 17.0353C5.00163 17.149 4.79857 17.3179 4.64415 17.5274Z" fill="white"/>
</g>
<defs>
<clipPath id="clip0_1_535">
<rect width="45" height="45" fill="white" transform="translate(0.369141)"/>
</clipPath>
</defs>
</svg>
